<svg id="Capa_1" enable-background="new 0 0 512 512" height="512" viewBox="0 0 512 512" width="512" xmlns="http://www.w3.org/2000/svg"><g><g><path d="m134.583 56.192h242.834v98.75h-242.834z" fill="#b2f0fb"/></g><g fill="#020288"><path d="m435.969 0h-359.938c-5.522 0-10 4.477-10 10v492c0 5.522 4.478 10 10 10h359.938c5.522 0 10-4.478 10-10v-492c0-5.523-4.478-10-10-10zm-10 492h-339.938v-472h339.938z"/><path d="m139.673 444.05h232.654c5.522 0 10-4.478 10-10v-232.654c0-5.523-4.478-10-10-10h-232.654c-5.523 0-10 4.477-10 10v232.654c0 5.522 4.477 10 10 10zm10-116.326h96.327v96.326h-96.327zm212.654 96.326h-96.327v-96.326h96.327zm0-116.326h-96.327v-96.327h96.327zm-212.654-96.328h96.327v96.327h-96.327z"/><path d="m211.763 249.56h-3.926v-3.926c0-5.523-4.478-10-10-10s-10 4.477-10 10v3.926h-3.927c-5.523 0-10 4.477-10 10 0 5.522 4.477 10 10 10h3.927v3.927c0 5.522 4.478 10 10 10s10-4.478 10-10v-3.927h3.926c5.523 0 10-4.478 10-10 0-5.523-4.478-10-10-10z"/><path d="m214.755 356.924c-3.906-3.904-10.238-3.904-14.143 0l-2.776 2.776-2.776-2.776c-3.905-3.902-10.235-3.904-14.143 0-3.905 3.905-3.905 10.237 0 14.143l2.776 2.776-2.776 2.776c-3.905 3.905-3.905 10.237 0 14.143 1.953 1.952 4.512 2.929 7.071 2.929 2.56 0 5.119-.977 7.071-2.929l2.776-2.776 2.776 2.776c1.953 1.952 4.512 2.929 7.071 2.929s5.118-.977 7.071-2.929c3.905-3.905 3.905-10.237 0-14.143l-2.776-2.776 2.776-2.776c3.907-3.906 3.907-10.238.002-14.143z"/><path d="m300.237 269.56h27.853c5.522 0 10-4.478 10-10 0-5.523-4.478-10-10-10h-27.853c-5.522 0-10 4.477-10 10 0 5.522 4.478 10 10 10z"/><path d="m300.237 399.766h27.853c5.522 0 10-4.478 10-10s-4.478-10-10-10h-27.853c-5.522 0-10 4.478-10 10s4.478 10 10 10z"/><path d="m300.237 365.766h27.853c5.522 0 10-4.478 10-10s-4.478-10-10-10h-27.853c-5.522 0-10 4.478-10 10s4.478 10 10 10z"/></g></g></svg>