<svg id="Capa_1" enable-background="new 0 0 512 512" height="512" viewBox="0 0 512 512" width="512" xmlns="http://www.w3.org/2000/svg"><g><g><path d="m220.139 45.931v115.687h105.011v119.477h78.227l61.25 36.789 3.442-36.789h43.931v-235.164z" fill="#ffbdbc"/></g><g fill="#020288"><path d="m325.149 151.618h-315.149c-5.523 0-10 4.478-10 10v253.928c0 5.522 4.477 10 10 10h48.929l2.25 31.241c.26 3.605 2.444 6.788 5.713 8.328 1.356.639 2.811.953 4.26.953 2.044 0 4.077-.627 5.799-1.853l54.332-38.67h193.866c5.522 0 10-4.478 10-10v-253.927c0-5.522-4.477-10-10-10zm-10 253.928h-187.061c-2.079 0-4.105.647-5.799 1.852l-42.44 30.206-1.641-22.777c-.377-5.23-4.73-9.281-9.974-9.281h-48.234v-233.928h295.149z"/><path d="m139.902 355.418c1.264.53 2.575.782 3.865.782 3.907 0 7.619-2.305 9.225-6.133l49.196-117.225c2.137-5.093-.258-10.954-5.351-13.091-5.092-2.137-10.953.259-13.09 5.351l-49.196 117.225c-2.137 5.093.259 10.954 5.351 13.091z"/><path d="m129.727 284.03c17.5 0 31.738-15.817 31.738-35.26s-14.237-35.261-31.738-35.261-31.738 15.818-31.738 35.261 14.238 35.26 31.738 35.26zm0-50.521c6.362 0 11.738 6.988 11.738 15.261 0 8.271-5.375 15.26-11.738 15.26-6.362 0-11.738-6.988-11.738-15.26 0-8.273 5.376-15.261 11.738-15.261z"/><path d="m173.685 328.918c0 19.442 14.237 35.261 31.738 35.261 17.5 0 31.738-15.818 31.738-35.261 0-19.442-14.237-35.261-31.738-35.261s-31.738 15.819-31.738 35.261zm31.738-15.261c6.362 0 11.738 6.988 11.738 15.261 0 8.272-5.375 15.261-11.738 15.261-6.362 0-11.738-6.988-11.738-15.261 0-8.272 5.375-15.261 11.738-15.261z"/></g></g></svg>