<svg id="Capa_1" enable-background="new 0 0 512 512" height="512" viewBox="0 0 512 512" width="512" xmlns="http://www.w3.org/2000/svg"><g><g><circle cx="256" cy="256" fill="#a4fcc4" r="159.04"/></g><g fill="#020288"><path d="m483.615 289.944c-5.432-1.048-10.668 2.505-11.712 7.927-19.878 103.161-110.679 178.035-215.903 178.035-103.007 0-192.191-71.753-214.552-171.553l2.61 2.61c1.953 1.953 4.512 2.93 7.071 2.93s5.118-.977 7.07-2.929c3.906-3.905 3.906-10.236.001-14.142l-20.565-20.566c-1.875-1.876-4.419-2.93-7.071-2.93s-5.196 1.054-7.071 2.93l-20.564 20.566c-3.905 3.905-3.905 10.236.001 14.142 3.904 3.906 10.237 3.905 14.142-.001l3.702-3.702c22.317 111.726 120.979 192.645 235.226 192.645 114.793 0 213.853-81.694 235.542-194.25 1.045-5.423-2.504-10.667-7.927-11.712z"/><path d="m509.07 205.036c-3.904-3.906-10.237-3.905-14.142.001l-3.702 3.702c-22.317-111.726-120.979-192.645-235.226-192.645-114.793 0-213.853 81.694-235.542 194.25-1.045 5.424 2.504 10.667 7.927 11.712 5.43 1.043 10.667-2.506 11.712-7.927 19.879-103.161 110.68-178.035 215.903-178.035 103.007 0 192.191 71.753 214.552 171.553l-2.61-2.61c-3.904-3.905-10.235-3.906-14.142-.001-3.906 3.905-3.906 10.236-.001 14.142l20.564 20.566c1.875 1.876 4.419 2.93 7.071 2.93s5.196-1.054 7.071-2.93l20.564-20.566c3.908-3.905 3.908-10.237.001-14.142z"/><path d="m266.552 300.082c1.212.483 2.462.711 3.692.711 3.976 0 7.736-2.388 9.295-6.308l27.675-69.579c2.041-5.132-.465-10.947-5.596-12.988-5.13-2.04-10.947.464-12.988 5.597l-27.675 69.579c-2.041 5.132.465 10.947 5.597 12.988z"/><path d="m323.063 231.21h22.96l-24.423 55.556c-2.223 5.056.074 10.956 5.13 13.179 1.31.576 2.675.849 4.02.849 3.846-.001 7.513-2.232 9.159-5.978l30.588-69.58c1.359-3.093 1.066-6.662-.78-9.49-1.847-2.829-4.996-4.534-8.374-4.534h-38.279c-5.522 0-10 4.478-10 10-.001 5.52 4.476 9.998 9.999 9.998z"/><path d="m195.058 275.338c1.799 3.047 5.073 4.916 8.611 4.916h24.728c-.028 3.686-.057 7.217-.085 10.45-.047 5.523 4.392 10.038 9.914 10.086h.088c5.482 0 9.95-4.421 9.998-9.914.023-2.617.053-6.331.087-10.675 5.036-.519 8.965-4.774 8.965-9.947 0-5.128-3.859-9.354-8.832-9.933.09-16.277.124-32.664-.08-35.118-.535-6.431-4.463-11.694-10.007-13.412-5.536-1.712-11.357.354-15.574 5.528-3.96 4.857-20.87 35.259-27.957 48.104-1.71 3.099-1.655 6.868.144 9.915zm33.533-29.048c-.015 4.319-.036 9.072-.063 13.964h-7.85c2.779-4.951 5.48-9.722 7.913-13.964z"/><path d="m189.009 301.31c5.522-.069 9.942-4.603 9.873-10.125-.068-5.479-4.532-9.874-9.996-9.874-.043 0-.086 0-.129.001-5.475.068-11.227.119-16.424.144 3.598-4.871 8.217-11.254 14.052-19.591 4.603-6.576 7.612-12.828 8.946-18.581.328-1.276.6-3.081.603-4.95.022-15.332-12.473-27.805-27.805-27.805-13.256 0-24.729 9.432-27.283 22.426-1.064 5.419 2.465 10.675 7.885 11.74 5.423 1.067 10.676-2.465 11.74-7.885.715-3.64 3.936-6.281 7.658-6.281 4.133 0 7.525 3.23 7.788 7.297l-.175 1.369c-.597 2.281-2.086 5.977-5.742 11.201-10.997 15.712-17.557 24.301-21.081 28.915-4.519 5.917-7.008 9.176-5.345 14.588.979 3.181 3.477 5.719 6.69 6.791 1.335.445 2.404.801 16.061.801 5.362-.001 12.664-.055 22.684-.181z"/></g></g></svg>