<svg id="Capa_1" enable-background="new 0 0 512 512" height="512" viewBox="0 0 512 512" width="512" xmlns="http://www.w3.org/2000/svg"><g><g fill="#020288"><path d="m475.294 28.481h-438.588c-20.24 0-36.706 16.501-36.706 36.784v387.818c0 16.782 13.601 30.436 30.317 30.436h451.365c16.717 0 30.317-13.653 30.317-30.436v-387.818c.001-20.283-16.465-36.784-36.705-36.784zm-455.294 36.784c0-9.254 7.494-16.783 16.706-16.783h438.588c9.212 0 16.706 7.529 16.706 16.783v59.432h-472zm472 387.818c0 5.754-4.628 10.436-10.317 10.436h-451.366c-5.69 0-10.317-4.682-10.317-10.436v-308.387h472z"/><path d="m328.973 76.589h-13.434c-5.522 0-10 4.478-10 10s4.478 10 10 10h13.434c5.522 0 10-4.478 10-10 0-5.523-4.478-10-10-10z"/><path d="m391.104 76.589h-13.433c-5.522 0-10 4.478-10 10s4.478 10 10 10h13.433c5.523 0 10-4.478 10-10 0-5.523-4.477-10-10-10z"/><path d="m453.236 76.589h-13.433c-5.522 0-10 4.478-10 10s4.478 10 10 10h13.433c5.522 0 10-4.478 10-10 0-5.523-4.477-10-10-10z"/><path d="m168.216 76.589h-96.949c-5.522 0-10 4.478-10 10s4.478 10 10 10h96.949c5.522 0 10-4.478 10-10 0-5.523-4.478-10-10-10z"/></g><g><g><circle cx="256" cy="305.026" fill="#e2c4ff" r="128.388"/></g><path d="m295.989 304.207c7.207-8.864 11.531-20.161 11.531-32.449 0-28.408-23.111-51.521-51.52-51.521s-51.52 23.112-51.52 51.521c0 12.285 4.322 23.579 11.525 32.442-14.076 7.646-23.601 22.597-23.601 39.504v34.274c0 5.522 4.478 10 10 10h107.191c5.522 0 10-4.478 10-10v-34.274c.001-16.874-9.533-31.839-23.606-39.497zm-39.989-63.97c17.38 0 31.52 14.14 31.52 31.521 0 17.38-14.14 31.52-31.52 31.52s-31.52-14.14-31.52-31.52c0-17.381 14.14-31.521 31.52-31.521zm43.596 127.741h-87.191v-24.274c0-12.898 9.987-23.742 22.789-24.816 6.366 2.822 13.407 4.39 20.807 4.39s14.441-1.568 20.807-4.39c12.791 1.072 22.789 11.943 22.789 24.816v24.274z" fill="#020288"/></g></g></svg>