<svg id="Capa_1" enable-background="new 0 0 512 512" height="512" viewBox="0 0 512 512" width="512" xmlns="http://www.w3.org/2000/svg"><g><g><path d="m183.617 383.966c0 11.92 9.663 21.583 21.583 21.583h101.6c11.92 0 21.583-9.663 21.583-21.583h78.921v-192.629h-302.608v192.629z" fill="#ffbdbc"/><g><g><path d="m233.061 361.512c-1.29 0-2.601-.252-3.866-.782-5.092-2.137-7.488-7.998-5.351-13.091l47.401-112.948c2.137-5.092 7.997-7.486 13.091-5.351 5.092 2.137 7.488 7.998 5.351 13.091l-47.401 112.948c-1.606 3.828-5.317 6.133-9.225 6.133z" fill="#020288"/></g><g><path d="m219.533 291.974c-17.064 0-30.945-15.404-30.945-34.339s13.882-34.339 30.945-34.339 30.944 15.404 30.944 34.339c0 18.934-13.881 34.339-30.944 34.339zm0-48.678c-5.933 0-10.945 6.566-10.945 14.339 0 7.772 5.013 14.339 10.945 14.339s10.944-6.566 10.944-14.339-5.011-14.339-10.944-14.339z" fill="#020288"/></g><g><path d="m292.467 369.198c-17.063 0-30.944-15.404-30.944-34.339s13.882-34.339 30.944-34.339c17.064 0 30.945 15.404 30.945 34.339s-13.882 34.339-30.945 34.339zm0-48.677c-5.933 0-10.944 6.566-10.944 14.339 0 7.772 5.012 14.339 10.944 14.339 5.933 0 10.945-6.566 10.945-14.339s-5.013-14.339-10.945-14.339z" fill="#020288"/></g></g></g><g fill="#020288"><path d="m502 373.966h-9.383v-288.351c0-22.468-18.279-40.747-40.747-40.747h-391.74c-22.468 0-40.747 18.279-40.747 40.747v288.351h-9.383c-5.523 0-10 4.478-10 10v37.406c0 25.232 20.527 45.76 45.76 45.76h420.48c25.232 0 45.76-20.527 45.76-45.76v-37.406c0-5.523-4.478-10-10-10zm-441.87-309.098h391.74c11.44 0 20.747 9.307 20.747 20.747v27.836h-433.234v-27.836c0-11.44 9.306-20.747 20.747-20.747zm-20.747 68.583h433.234v240.515h-144.234c-5.522 0-10 4.478-10 10 0 6.387-5.196 11.583-11.583 11.583h-101.6c-6.387 0-11.583-5.196-11.583-11.583 0-5.522-4.478-10-10-10h-144.234zm452.617 287.921c0 14.204-11.556 25.76-25.76 25.76h-420.48c-14.204 0-25.76-11.556-25.76-25.76v-27.406h155.239c4.193 12.528 16.04 21.583 29.961 21.583h101.6c13.921 0 25.768-9.055 29.961-21.583h155.239z"/><path d="m250.383 97.979h11.234c5.522 0 10-4.478 10-10s-4.478-10-10-10h-11.234c-5.522 0-10 4.478-10 10s4.477 10 10 10z"/></g></g></svg>