<svg id="Capa_1" enable-background="new 0 0 512 512" height="512" viewBox="0 0 512 512" width="512" xmlns="http://www.w3.org/2000/svg"><g><g><path d="m469.871 159.668c1.879-1.876 2.935-4.422 2.935-7.077s-1.056-5.201-2.935-7.077l-53.256-53.161c-3.904-3.896-10.226-3.896-14.13 0l-27.381 27.332c-24.474-16.378-51.956-27.45-81.005-32.619 8.582-9.254 13.835-21.629 13.835-35.207 0-28.595-23.297-51.859-51.934-51.859s-51.934 23.264-51.934 51.859c0 13.577 5.252 25.953 13.835 35.207-29.049 5.169-56.531 16.241-81.005 32.619l-27.381-27.332c-3.904-3.896-10.226-3.896-14.13 0l-53.256 53.161c-1.879 1.876-2.935 4.422-2.935 7.077s1.056 5.201 2.935 7.077l29.173 29.122c-19.437 32.673-29.807 70.076-29.807 109.069 0 57.202 22.314 110.98 62.833 151.427 40.514 40.442 94.379 62.714 151.672 62.714s111.158-22.272 151.671-62.714c40.519-40.446 62.833-94.225 62.833-151.427 0-38.994-10.37-76.396-29.807-109.07zm-60.321-46.108 39.101 39.031-19.215 19.181c-6.53-8.912-13.795-17.383-21.765-25.339-5.221-5.211-10.664-10.121-16.307-14.72zm-153.55-93.56c17.608 0 31.934 14.292 31.934 31.859 0 14.084-9.209 26.063-21.934 30.259v-23.11c0-5.522-4.477-10-10-10s-10 4.478-10 10v23.11c-12.726-4.196-21.934-16.175-21.934-30.259 0-17.567 14.326-31.859 31.934-31.859zm-192.651 132.591 39.101-39.031 18.186 18.153c-5.643 4.599-11.086 9.508-16.307 14.72-7.97 7.956-15.235 16.428-21.765 25.339zm192.651 339.409c-107.251 0-194.505-87.091-194.505-194.141s87.254-194.14 194.505-194.14 194.505 87.091 194.505 194.141-87.255 194.14-194.505 194.14z" fill="#020288"/></g><g><g><ellipse cx="256" cy="297.859" fill="#e2c4ff" rx="152.994" ry="152.721"/></g><g><g><path d="m256 195.824c-5.523 0-10-4.478-10-10v-3.411c0-5.523 4.477-10 10-10s10 4.477 10 10v3.411c0 5.523-4.477 10-10 10z" fill="#020288"/></g><g><path d="m256 423.306c-5.523 0-10-4.478-10-10v-3.411c0-5.522 4.477-10 10-10s10 4.478 10 10v3.411c0 5.522-4.477 10-10 10z" fill="#020288"/></g></g><g><g><path d="m371.446 307.859h-3.412c-5.523 0-10-4.478-10-10s4.477-10 10-10h3.412c5.523 0 10 4.478 10 10 0 5.523-4.477 10-10 10z" fill="#020288"/></g><g><path d="m143.965 307.859h-3.412c-5.523 0-10-4.478-10-10s4.477-10 10-10h3.412c5.523 0 10 4.478 10 10 0 5.523-4.477 10-10 10z" fill="#020288"/></g></g><g><g><path d="m335.221 228.639c-2.559 0-5.119-.977-7.071-2.929-3.905-3.905-3.905-10.237 0-14.143l2.412-2.412c3.905-3.904 10.237-3.904 14.143 0 3.905 3.905 3.905 10.237 0 14.143l-2.412 2.412c-1.954 1.952-4.513 2.929-7.072 2.929z" fill="#020288"/></g><g><path d="m174.367 389.492c-2.559 0-5.119-.977-7.071-2.929-3.905-3.905-3.905-10.237 0-14.143l2.412-2.412c3.905-3.904 10.237-3.904 14.143 0 3.905 3.905 3.905 10.237 0 14.143l-2.412 2.412c-1.953 1.953-4.513 2.929-7.072 2.929z" fill="#020288"/></g></g><g><g><path d="m337.633 389.492c-2.559 0-5.119-.977-7.071-2.929l-2.412-2.412c-3.905-3.905-3.905-10.237 0-14.143 3.905-3.904 10.237-3.904 14.143 0l2.412 2.412c3.905 3.905 3.905 10.237 0 14.143-1.954 1.953-4.513 2.929-7.072 2.929z" fill="#020288"/></g><g><path d="m176.779 228.639c-2.559 0-5.119-.977-7.071-2.929l-2.412-2.412c-3.905-3.905-3.905-10.237 0-14.143 3.905-3.904 10.237-3.904 14.143 0l2.412 2.412c3.905 3.905 3.905 10.237 0 14.143-1.953 1.952-4.513 2.929-7.072 2.929z" fill="#020288"/></g></g><path d="m315.809 286.361h-25.278c-3.337-11.001-12.031-19.695-23.033-23.032v-31.308c0-5.523-4.477-10-10-10s-10 4.477-10 10v31.308c-14.168 4.297-24.511 17.48-24.511 33.032 0 19.029 15.482 34.511 34.511 34.511 15.553 0 28.736-10.342 33.033-24.511h25.278c5.523 0 10-4.478 10-10s-4.477-10-10-10zm-58.311 24.511c-8.001 0-14.511-6.51-14.511-14.511s6.509-14.51 14.511-14.51c8.001 0 14.511 6.509 14.511 14.51-.001 8.001-6.51 14.511-14.511 14.511z" fill="#020288"/></g></g></svg>